<svg xmlns="http://www.w3.org/2000/svg" xmlns:xlink="http://www.w3.org/1999/xlink" viewBox="0,0,256,256" width="64px" height="64px"><g fill="none" fill-rule="nonzero" stroke="none" stroke-width="none" stroke-linecap="butt" stroke-linejoin="none" stroke-miterlimit="10" stroke-dasharray="" stroke-dashoffset="0" font-family="none" font-weight="none" font-size="none" text-anchor="none" style="mix-blend-mode: normal"><path transform="scale(4,4)" d="M58,32c0,11.64064 -7.65245,21.48863 -18.2,24.80197l0,-8.55197c0,-2.337 -0.972,-4.42 -2.6,-5.85c6.097,-1.219 10.4,-4.716 10.4,-10.4c0,-2.876 -1.134,-5.525 -3.032,-7.678c0.164,-0.507 0.432,-1.682 0.432,-3.697c0,-1.235 -0.083,-2.751 -0.65,-4.225c0,0 -3.708,0.026 -7.205,3.338c-1.614,-0.47 -3.341,-0.738 -5.145,-0.738c-1.804,0 -3.531,0.268 -5.145,0.738c-3.497,-3.312 -7.205,-3.338 -7.205,-3.338c-0.564,1.474 -0.65,2.99 -0.65,4.225c0,1.869 0.333,3.016 0.533,3.583c-1.958,2.173 -3.133,4.864 -3.133,7.792c0,5.684 4.303,9.181 10.4,10.4c-1.37,1.204 -2.21,2.886 -2.478,4.774c-0.58,0.28 -1.422,0.426 -2.397,0.426c-0.783,0 -2.304,-0.37 -3.721,-2.577c-0.572,-0.894 -1.804,-2.623 -3.429,-2.623c-0.317,0 -0.985,-0.02 -0.975,0.471c0.005,0.234 0.364,0.236 1.131,0.92c0.642,0.575 1.24,1.516 1.469,2.509c0.377,1.63 1.888,4.875 5.525,4.875c1.3,0 2.275,-0.325 2.275,-0.325v5.95197c-10.54755,-3.31334 -18.2,-13.16133 -18.2,-24.80197c0,-14.359 11.641,-26 26,-26c14.359,0 26,11.641 26,26zM25.955,57.286c-0.592,-0.141 -1.179,-0.299 -1.755,-0.479v-0.00503c0.57661,0.18113 1.16187,0.34273 1.755,0.48403zM39.8,56.807c-0.576,0.181 -1.162,0.338 -1.755,0.479c0.59313,-0.1413 1.17839,-0.3029 1.755,-0.48403zM33.813,57.93c-0.599,0.042 -1.203,0.07 -1.813,0.07c0.61,0 1.213,-0.029 1.813,-0.07zM37.786,57.346c-1.164,0.265 -2.357,0.451 -3.575,0.554c1.218,-0.103 2.411,-0.29 3.575,-0.554zM32,58c-0.61,0 -1.214,-0.028 -1.813,-0.07c0.6,0.041 1.203,0.07 1.813,0.07zM29.788,57.9c-1.217,-0.103 -2.411,-0.289 -3.574,-0.554c1.164,0.264 2.357,0.451 3.574,0.554z" id="strokeMainSVG" fill="#ffffff" stroke="#ffffff" stroke-width="2" stroke-linejoin="round"></path><g transform="scale(4,4)" fill="#060120" stroke="none" stroke-width="1" stroke-linejoin="miter"><path d="M32,6c-14.359,0 -26,11.641 -26,26c0,12.277 8.512,22.56 19.955,25.286c-0.592,-0.141 -1.179,-0.299 -1.755,-0.479v-5.957c0,0 -0.975,0.325 -2.275,0.325c-3.637,0 -5.148,-3.245 -5.525,-4.875c-0.229,-0.993 -0.827,-1.934 -1.469,-2.509c-0.767,-0.684 -1.126,-0.686 -1.131,-0.92c-0.01,-0.491 0.658,-0.471 0.975,-0.471c1.625,0 2.857,1.729 3.429,2.623c1.417,2.207 2.938,2.577 3.721,2.577c0.975,0 1.817,-0.146 2.397,-0.426c0.268,-1.888 1.108,-3.57 2.478,-4.774c-6.097,-1.219 -10.4,-4.716 -10.4,-10.4c0,-2.928 1.175,-5.619 3.133,-7.792c-0.2,-0.567 -0.533,-1.714 -0.533,-3.583c0,-1.235 0.086,-2.751 0.65,-4.225c0,0 3.708,0.026 7.205,3.338c1.614,-0.47 3.341,-0.738 5.145,-0.738c1.804,0 3.531,0.268 5.145,0.738c3.497,-3.312 7.205,-3.338 7.205,-3.338c0.567,1.474 0.65,2.99 0.65,4.225c0,2.015 -0.268,3.19 -0.432,3.697c1.898,2.153 3.032,4.802 3.032,7.678c0,5.684 -4.303,9.181 -10.4,10.4c1.628,1.43 2.6,3.513 2.6,5.85v8.557c-0.576,0.181 -1.162,0.338 -1.755,0.479c11.443,-2.726 19.955,-13.009 19.955,-25.286c0,-14.359 -11.641,-26 -26,-26zM33.813,57.93c-0.599,0.042 -1.203,0.07 -1.813,0.07c0.61,0 1.213,-0.029 1.813,-0.07zM37.786,57.346c-1.164,0.265 -2.357,0.451 -3.575,0.554c1.218,-0.103 2.411,-0.29 3.575,-0.554zM32,58c-0.61,0 -1.214,-0.028 -1.813,-0.07c0.6,0.041 1.203,0.07 1.813,0.07zM29.788,57.9c-1.217,-0.103 -2.411,-0.289 -3.574,-0.554c1.164,0.264 2.357,0.451 3.574,0.554z"></path></g></g></svg>