<svg xmlns="http://www.w3.org/2000/svg" xmlns:xlink="http://www.w3.org/1999/xlink" viewBox="0,0,256,256" width="50px" height="50px"><g transform="translate(8.96,8.96) scale(0.93,0.93)"><g fill="none" fill-rule="nonzero" stroke="none" stroke-width="none" stroke-linecap="butt" stroke-linejoin="none" stroke-miterlimit="10" stroke-dasharray="" stroke-dashoffset="0" font-family="none" font-weight="none" font-size="none" text-anchor="none" style="mix-blend-mode: normal"><path transform="scale(5.12,5.12)" d="M6,9c0.552,0 1,0.448 1,1v14.5c0,2.63 2.26722,4.74052 4.94922,4.47852c2.338,-0.228 4.05078,-2.32873 4.05078,-4.67773v-14.30078c0,-0.552 0.448,-1 1,-1h5.16211c0.427,0 0.80436,0.26887 0.94336,0.67188c0.032,0.091 0.30914,1.5032 0.49414,2.2832c0.508,2.139 1.47695,5.0915 3.12695,7.9375c0.208,-0.574 0.4668,-1.14844 0.4668,-1.14844c2.332,-4.795 7.75772,-7.6798 13.38672,-6.4668c4.834,1.041 8.59892,5.07666 9.29492,9.97266c1.051,7.391 -4.683,13.75 -11.875,13.75c-2.185,0 -4.38188,-0.5665 -6.54687,-1.6875l-0.91016,-0.52734c-0.882,3.723 -1.85556,7.83017 -2.47656,10.45117c-0.107,0.451 -0.5067,0.76367 -0.9707,0.76367h-5.11914c-0.306,0 -0.59416,-0.14091 -0.78516,-0.37891c-0.189,-0.241 -0.25845,-0.55161 -0.18945,-0.84961l3.5293,-14.97852c-0.585,-0.657 -1.16437,-1.37258 -1.73437,-2.14258c-1.049,5.526 -6.06589,9.66408 -11.96289,9.33008c-6.151,-0.349 -10.83398,-5.70424 -10.83398,-11.86523v-14.11523c0,-0.552 0.448,-1 1,-1z" id="strokeMainSVG" fill="#ffffff" stroke="#ffffff" stroke-width="3" stroke-linejoin="round"></path><g transform="scale(5.12,5.12)" fill="#060120" stroke="none" stroke-width="1" stroke-linejoin="miter"><path d="M1,9c-0.552,0 -1,0.448 -1,1v14.11523c0,6.161 4.68298,11.51624 10.83398,11.86523c5.897,0.334 10.91389,-3.80408 11.96289,-9.33008c0.57,0.77 1.14937,1.48558 1.73438,2.14258l-3.5293,14.97852c-0.069,0.298 0.00045,0.60861 0.18945,0.84961c0.191,0.238 0.47916,0.37891 0.78516,0.37891h5.11914c0.464,0 0.8637,-0.31267 0.9707,-0.76367c0.621,-2.621 1.59456,-6.72817 2.47656,-10.45117l0.91016,0.52734c2.165,1.121 4.36187,1.6875 6.54688,1.6875c7.192,0 12.926,-6.359 11.875,-13.75c-0.696,-4.896 -4.46092,-8.93166 -9.29492,-9.97266c-5.629,-1.213 -11.05472,1.6718 -13.38672,6.4668c0,0 -0.2588,0.57444 -0.4668,1.14844c-1.65,-2.846 -2.61895,-5.7985 -3.12695,-7.9375c-0.185,-0.78 -0.46214,-2.1922 -0.49414,-2.2832c-0.139,-0.403 -0.51636,-0.67187 -0.94336,-0.67187h-5.16211c-0.552,0 -1,0.448 -1,1v14.30078c0,2.349 -1.71278,4.44974 -4.05078,4.67773c-2.682,0.262 -4.94922,-1.84852 -4.94922,-4.47852v-14.5c0,-0.552 -0.448,-1 -1,-1zM38,19c2.757,0 5,2.243 5,5c0,2.757 -2.243,5 -5,5c-2.225,0 -4.28647,-1.34172 -5.73047,-2.51172c0.527,-2.225 0.88072,-3.71523 0.88672,-3.74023c0.568,-2.207 2.56075,-3.74805 4.84375,-3.74805z"></path></g></g></g></svg>